<?xml version="1.0" encoding="UTF-8" standalone="no"?>
<svg
   xmlns:dc="http://purl.org/dc/elements/1.1/"
   xmlns:cc="http://creativecommons.org/ns#"
   xmlns:rdf="http://www.w3.org/1999/02/22-rdf-syntax-ns#"
   xmlns:svg="http://www.w3.org/2000/svg"
   xmlns="http://www.w3.org/2000/svg"
   xmlns:sodipodi="http://sodipodi.sourceforge.net/DTD/sodipodi-0.dtd"
   xmlns:inkscape="http://www.inkscape.org/namespaces/inkscape"
   height="192"
   width="256"
   version="1.1"
   id="svg14"
   sodipodi:docname="site-featured-image.svg"
   inkscape:version="0.92.5 (2060ec1f9f, 2020-04-08)"
   inkscape:export-filename="D:\Sites\SHOWER-center\static\images\site-featured-image-1024x768.png"
   inkscape:export-xdpi="384"
   inkscape:export-ydpi="384">
  <metadata
     id="metadata18">
    <rdf:RDF>
      <cc:Work
         rdf:about="">
        <dc:format>image/svg+xml</dc:format>
        <dc:type
           rdf:resource="http://purl.org/dc/dcmitype/StillImage" />
        <dc:title />
      </cc:Work>
    </rdf:RDF>
  </metadata>
  <sodipodi:namedview
     pagecolor="#ffffff"
     bordercolor="#666666"
     borderopacity="1"
     objecttolerance="10"
     gridtolerance="10"
     guidetolerance="10"
     inkscape:pageopacity="0"
     inkscape:pageshadow="2"
     inkscape:window-width="1920"
     inkscape:window-height="1018"
     id="namedview16"
     showgrid="false"
     inkscape:zoom="4.1927083"
     inkscape:cx="147.08075"
     inkscape:cy="96"
     inkscape:window-x="-8"
     inkscape:window-y="-8"
     inkscape:window-maximized="1"
     inkscape:current-layer="layer1"
     inkscape:object-paths="false"
     inkscape:snap-page="true" />
  <defs
     id="defs12" />
  <g
     inkscape:groupmode="layer"
     id="layer1"
     inkscape:label="Layer 1">
    <rect
       style="opacity:1;fill:#ffffff;fill-opacity:1;stroke:none;stroke-width:2;stroke-linecap:round;stroke-linejoin:round;stroke-miterlimit:4;stroke-dasharray:none;stroke-dashoffset:0;stroke-opacity:1;paint-order:markers fill stroke"
       id="rect840"
       width="256"
       height="192"
       x="0"
       y="0" />
    <rect
       style="opacity:1;fill:#ffffff;fill-opacity:1;stroke:none;stroke-width:0.80000001;stroke-linecap:round;stroke-linejoin:miter;stroke-miterlimit:4;stroke-dasharray:none;stroke-dashoffset:0;stroke-opacity:0.48333333;paint-order:stroke fill markers"
       id="rect839"
       width="160"
       height="160"
       x="48"
       y="16"
       inkscape:export-xdpi="614.40002"
       inkscape:export-ydpi="614.40002" />
    <path
       inkscape:connector-curvature="0"
       style="display:inline;opacity:1;fill:#ffa825;fill-opacity:1;stroke:none;stroke-width:0.2;stroke-linecap:round;stroke-linejoin:miter;stroke-miterlimit:4;stroke-dasharray:none;stroke-dashoffset:0;stroke-opacity:1;paint-order:stroke fill markers"
       d="m 128.00001,28.479328 c -10.26223,0 -19.23733,5.507712 -22.55605,16.699475 -3.31873,11.191764 6.46942,21.89706 0.29088,28.575036 -6.178552,6.677976 -17.684181,-3.245315 -28.487768,-5.24813 -9.551141,-0.443323 -16.699452,3.8294 -18.890843,10.57383 -2.504445,7.707913 2.127814,16.610798 10.556861,20.500428 8.429047,3.889673 16.203189,7.072373 18.575712,14.459623 2.372523,7.38727 -1.507842,16.02075 -6.751058,25.67585 -3.373021,8.94586 -2.141231,18.1012 4.22032,21.23491 19.200916,9.45839 22.208786,-10.23238 43.041946,-10.21747 20.83315,-0.0149 23.84101,19.67586 43.04193,10.21747 6.36155,-3.13371 7.59334,-12.28905 4.22032,-21.23491 -5.24322,-9.6551 -9.12358,-18.28858 -6.75106,-25.67585 2.37254,-7.38725 10.14667,-10.56995 18.57571,-14.459623 8.42905,-3.88963 13.06131,-12.792515 10.55686,-20.500428 -2.19138,-6.74443 -9.3397,-11.017153 -18.89083,-10.57383 -10.80359,2.002815 -22.30923,11.926106 -28.48778,5.24813 -6.17854,-6.677976 3.60961,-17.383272 0.29088,-28.575036 -3.31871,-11.191763 -12.2938,-16.699475 -22.55603,-16.699475 z m 0,48.498535 a 24.822562,24.822562 0 0 1 24.82256,24.822567 24.822562,24.822562 0 0 1 -24.82256,24.82256 24.822562,24.822562 0 0 1 -24.82257,-24.82256 24.822562,24.822562 0 0 1 24.82257,-24.822567 z"
       id="bb1" />
    <path
       inkscape:connector-curvature="0"
       d="m 132.79316,36.985788 c 30.33722,2.102762 75.72422,48.157939 64.08789,79.518542 -9.28208,25.01379 -99.668727,39.92313 -136.96316,-3.07657 -15.799628,-18.217209 42.53803,-78.544738 72.87618,-76.442888 z"
       id="bb2"
       style="display:inline;fill:#ffd322;fill-opacity:0.68999999;stroke:none;stroke-width:1;paint-order:normal" />
    <path
       inkscape:connector-curvature="0"
       id="tt1"
       d="m 84.245269,96.797438 q -2.664702,0 -3.843774,-0.685103 -1.180312,-0.723578 -1.180312,-1.256022 0,-0.304076 0.114183,-0.609393 0.152659,-0.342552 0.456736,-0.609394 0.609393,0.570919 1.598573,0.989179 1.027654,0.41826 2.778885,0.41826 2.587752,0 3.72959,-1.370206 1.141838,-1.40868 1.141838,-3.578172 0,-1.712757 -0.609394,-3.044487 -0.609394,-1.370205 -2.207967,-3.007253 l -4.2248,-4.263275 q -1.294496,-1.408681 -1.979599,-2.626228 -0.685103,-1.256021 -0.685103,-2.74041 0,-2.207967 1.637048,-3.615407 1.674282,-1.40868 4.64306,-1.40868 2.512044,0 3.615407,0.532444 1.141837,0.532444 1.141837,1.066129 0,0.266843 -0.152658,0.570919 -0.114184,0.266843 -0.342552,0.49521 -0.456735,-0.381026 -1.560098,-0.723578 -1.066129,-0.381026 -2.664702,-0.381026 -2.016833,0 -3.272854,0.951945 -1.256022,0.951946 -1.256022,2.473569 0,1.217546 0.609394,2.207967 0.646628,0.989179 1.598573,2.016833 l 4.681535,4.681535 q 1.637048,1.712757 2.207967,3.235621 0.609399,1.484389 0.609399,3.387038 0,1.9796 -0.685108,3.539698 -0.646628,1.560098 -2.093783,2.473568 -1.445914,0.874995 -3.80654,0.874995 z M 104.83807,96.417653 V 70.231091 q 0,-0.228368 0.0757,-0.304077 0.0757,-0.114183 0.41826,-0.114183 0.38103,-0.03848 1.21755,-0.03848 v 26.186566 q 0,0.228368 -0.0757,0.342552 -0.0385,0.07571 -0.41826,0.114184 -0.34255,0 -1.21755,0 z m -10.543382,0 V 70.231091 q 0,-0.228368 0.07571,-0.304077 0.07571,-0.114183 0.41826,-0.114183 0.381027,-0.03848 1.217547,-0.03848 v 26.186566 q 0,0.228368 -0.07571,0.342552 -0.03847,0.07571 -0.41826,0.114184 -0.342551,0 -1.217547,0 z m 0.951946,-13.702055 v -1.674281 h 10.429206 v 1.674281 z m 22.090836,14.08184 q -1.82694,0 -3.15867,-0.685103 -1.29449,-0.685103 -2.13101,-2.245201 -0.83776,-1.598573 -1.25602,-4.263275 -0.38103,-2.701936 -0.38103,-6.698368 0,-4.909903 0.79929,-7.878681 0.79928,-2.968779 2.43633,-4.300509 1.63705,-1.331731 4.11062,-1.331731 1.82694,0 3.12143,0.723578 1.2945,0.685103 2.09379,2.283676 0.79928,1.560098 1.14183,4.149091 0.38103,2.550518 0.38103,6.318583 0,5.099796 -0.76081,8.145524 -0.72358,3.044487 -2.32215,4.414693 -1.5601,1.370205 -4.07214,1.370205 z m 0.0385,-1.751232 q 1.90265,0 3.04449,-1.180313 1.14183,-1.180313 1.67428,-3.843774 0.57092,-2.701935 0.57092,-7.193578 0,-4.377459 -0.49521,-6.926736 -0.49521,-2.550518 -1.59858,-3.653881 -1.06612,-1.103363 -2.85459,-1.103363 -1.86542,0 -3.08296,1.180313 -1.18032,1.180313 -1.78847,3.882249 -0.57092,2.701935 -0.57092,7.269287 0,4.2248 0.49521,6.775318 0.53245,2.512043 1.63705,3.653881 1.14184,1.141838 2.96878,1.141838 z m 25.96564,1.751232 q -0.30408,0 -0.53244,-0.532444 -0.22837,-0.532444 -0.41826,-1.331731 l -3.23562,-13.740529 q -0.0385,-0.342551 -0.1899,-1.217546 -0.15266,-0.913471 -0.34255,-2.016834 -0.18989,-1.103363 -0.34255,-2.131017 -0.15266,-1.027654 -0.26684,-1.674281 -0.11419,-0.685103 -0.11419,-0.685103 l -0.49521,-1.598573 q -0.0757,-0.304076 -0.0385,-0.456735 0.0757,-0.189893 0.38103,-0.189893 h 1.18031 l 3.5397,15.98573 q 0.34255,1.522864 0.53244,2.664702 0.18989,1.103363 0.34255,2.093783 0.15266,0.989179 0.30408,2.169492 h 0.11418 q 0.18989,-1.40868 0.41826,-3.197146 0.26684,-1.82694 0.60939,-3.72959 l 3.42552,-16.746541 q 0.0757,-0.342552 0.15266,-0.49521 0.0757,-0.189893 0.38102,-0.189893 h 1.37021 l -5.5193,26.908898 q -0.18989,0 -0.38102,0.03848 -0.15266,0.03847 -0.34256,0.03847 -0.18989,0.03848 -0.53244,0.03848 z m -11.00012,-0.03848 q -0.26684,0 -0.53244,-0.609394 -0.22837,-0.646628 -0.45674,-1.712757 -0.30407,-1.637048 -0.83776,-3.996432 -0.53244,-2.39786 -1.10336,-5.099796 -0.57092,-2.701936 -1.14184,-5.328163 -0.57092,-2.626227 -1.06613,-4.795719 -0.45673,-2.169492 -0.76081,-3.463988 -0.26684,-1.294497 -0.26684,-1.294497 -0.0385,-0.304076 0,-0.49521 0.0385,-0.189892 0.34255,-0.189892 h 1.3702 l 3.76807,17.431644 q 0.30408,1.522864 0.49521,2.664702 0.18989,1.141838 0.34255,2.169492 0.18989,0.989179 0.34255,2.169492 h 0.11419 q 0.18989,-1.90265 0.41826,-3.539698 0.26684,-1.637048 0.64662,-3.463988 l 3.12144,-15.339102 q 0.0757,-0.304077 0.15266,-0.456736 0.11418,-0.189892 0.38103,-0.189892 h 0.72357 q 0.38103,0 0.38103,0.189892 0.0385,0.189893 -0.0385,0.456736 l -0.53245,1.598573 q 0,0 -0.11418,0.685102 -0.11419,0.646628 -0.26684,1.674282 -0.15266,1.027654 -0.30408,2.131017 -0.15266,1.066129 -0.30408,1.941124 -0.15266,0.874996 -0.18989,1.217547 l -3.31133,15.56747 q -0.22837,0.03847 -0.57092,0.03847 -0.30408,0.03848 -0.79929,0.03848 z m 20.2366,-0.34131 V 70.231091 q 0,0 0.0757,-0.228368 0.0757,-0.228367 0.41826,-0.228367 h 9.09623 q 0,0.685102 -0.0385,1.027654 0,0.342551 -0.0757,0.456735 -0.0757,0.114184 -0.26684,0.114184 h -7.49766 V 94.81908 h 7.87868 q 0,0.723577 -0.0385,1.066129 -0.0385,0.342551 -0.11419,0.456735 -0.0757,0.07571 -0.26684,0.07571 z m 0.53244,-13.74053 V 81.04007 h 8.22123 q 0,0.98918 -0.0385,1.331731 -0.0385,0.304076 -0.34255,0.304076 z m 13.31234,2.322151 q -0.53244,0 -0.49521,-0.152659 0.0757,-0.189892 0.0757,-0.456735 V 70.420983 q 0,-0.189892 0,-0.41826 0.0385,-0.228367 0.22837,-0.228367 h 3.84377 q 2.39786,0 3.80654,0.951945 1.44591,0.91347 2.05531,2.512043 0.64663,1.598573 0.64663,3.692356 0,2.093783 -0.45674,3.615406 -0.45673,1.48439 -1.3702,2.473569 -0.875,0.989179 -2.13102,1.484389 -1.21755,0.49521 -2.74041,0.49521 z m -0.83776,11.418379 V 70.231091 q 0,0 0.0385,-0.228368 0.0757,-0.228367 0.41826,-0.228367 h 0.79929 q 0.34255,0 0.38103,0.228367 0.0757,0.228368 0.0757,0.228368 v 25.729826 q 0,0.228368 -0.0757,0.342552 -0.0757,0.07571 -0.45674,0.114184 -0.34255,0 -1.18031,0 z m 10.0097,0.03847 q -0.1899,0 -0.41826,-0.03847 -0.22837,0 -0.57092,0 -0.34255,-3.197146 -1.02766,-5.442347 -0.6851,-2.245201 -1.40868,-3.653881 -0.72357,-1.408681 -1.21754,-2.016833 -0.49521,-0.646628 -0.49521,-0.646628 0,0 -0.0757,-0.189893 -0.0385,-0.228367 0.26684,-0.381026 l 0.79929,-0.41826 q 0.30407,0 0.45673,0.228367 0,0 0.57092,0.760812 0.60939,0.760811 1.40868,2.283676 0.79929,1.522864 1.52287,3.768064 0.72357,2.207967 1.02765,5.176746 0,0.304076 -0.15266,0.41826 -0.11418,0.114184 -0.6851,0.152659 z m -8.4881,-13.092651 h 2.8546 q 1.67428,0 2.70193,-0.760811 1.02766,-0.760812 1.5601,-2.207967 0.53244,-1.445914 0.53244,-3.539698 0,-1.522864 -0.41826,-2.778885 -0.38102,-1.256022 -1.40868,-1.9796 -0.98918,-0.760811 -2.77888,-0.760811 h -3.04449 z M 87.042772,124.95988 q -4.120545,0 -6.627624,-2.48225 -2.482256,-2.48226 -2.482256,-6.67727 0,-4.19502 2.482256,-6.6028 2.482256,-2.43262 6.627624,-2.43262 4.865227,0 7.645354,3.35105 l -2.382966,1.96098 q -1.812052,-2.5319 -5.212743,-2.5319 -2.705659,0 -4.343948,1.68794 -1.638289,1.68793 -1.638289,4.56735 0,2.90424 1.638289,4.64182 1.663111,1.73758 4.343948,1.73758 3.425514,0 5.212743,-2.50708 l 2.382966,1.96098 q -2.755304,3.32622 -7.645354,3.32622 z m 10.130092,-0.32269 v -17.54955 h 12.485756 v 2.68083 h -9.50705 v 4.89005 h 8.01769 v 2.58155 h -8.01769 v 4.71628 h 9.95385 v 2.68084 z m 28.169886,-17.54955 h 3.00353 v 17.67366 h -1.539 l -10.97157,-12.11341 v 11.9893 h -3.00353 V 106.9387 h 1.539 l 10.97157,12.11341 z m 11.20863,17.54955 v -14.76943 h -5.73401 v -2.78012 h 14.57084 v 2.78012 h -5.73401 v 14.76943 z m 11.28434,0 v -17.54955 h 12.48574 v 2.68083 h -9.50704 v 4.89005 h 8.01769 v 2.58155 h -8.01769 v 4.71628 h 9.95385 v 2.68084 z m 30.23139,0 h -3.69856 l -3.69856,-5.26238 q -0.0993,0 -0.32269,0.0248 -0.19858,0 -0.3227,0 h -3.49998 v 5.23756 h -3.02835 v -17.54955 h 7.07443 q 3.35105,0 5.11345,1.58864 1.7624,1.56382 1.7624,4.54253 0,4.21984 -3.59927,5.56025 z m -8.16662,-7.84393 q 2.15956,0 3.25176,-0.91844 1.11701,-0.91843 1.11701,-2.55672 0,-3.57445 -3.99643,-3.57445 h -3.74821 v 7.04961 z"
       style="display:inline;stroke-width:1" />
  </g>
  <g
     inkscape:groupmode="layer"
     id="layer2"
     inkscape:label="Zonas seguras"
     sodipodi:insensitive="true"
     style="display:none">
    <rect
       style="opacity:1;fill:#ffff00;fill-opacity:0.25098039;stroke:none;stroke-width:2;stroke-linecap:round;stroke-linejoin:round;stroke-miterlimit:4;stroke-dasharray:none;stroke-dashoffset:0;stroke-opacity:1;paint-order:markers fill stroke"
       id="rect848"
       width="192"
       height="192"
       x="32"
       y="0" />
    <rect
       y="24"
       x="1.0658141e-14"
       height="144"
       width="256"
       id="rect850"
       style="opacity:1;fill:#ff0000;fill-opacity:0.25098039;stroke:none;stroke-width:2;stroke-linecap:round;stroke-linejoin:round;stroke-miterlimit:4;stroke-dasharray:none;stroke-dashoffset:0;stroke-opacity:1;paint-order:markers fill stroke" />
  </g>
</svg>
